<svg width="780" height="166" viewBox="0 0 780 166" fill="none" xmlns="http://www.w3.org/2000/svg">
<path fill-rule="evenodd" clip-rule="evenodd" d="M755.581 9.1836V25.244H759.107V19.8035H762.603L765.418 25.244H769.291L765.999 19.0184C766.693 18.6063 767.289 18.041 767.79 17.3226C768.355 16.4957 768.638 15.4946 768.638 14.3195C768.638 13.1588 768.363 12.2013 767.811 11.4469C767.275 10.6779 766.622 10.1121 765.853 9.74942C765.084 9.37221 764.373 9.1836 763.72 9.1836H755.581ZM759.107 17.1921H762.371C762.85 17.1921 763.365 16.9527 763.916 16.4739C764.482 15.9951 764.765 15.277 764.765 14.3195C764.765 13.3329 764.482 12.6655 763.916 12.3173C763.365 11.9692 762.879 11.7951 762.458 11.7951H759.107V17.1921ZM754.906 33.4701C757.01 34.3696 759.266 34.8193 761.674 34.8193C764.083 34.8193 766.339 34.3696 768.442 33.4701C770.546 32.5706 772.396 31.3229 773.992 29.727C775.588 28.1311 776.835 26.2814 777.735 24.1777C778.634 22.074 779.084 19.818 779.084 17.4097C779.084 15.0013 778.634 12.7453 777.735 10.6417C776.835 8.53799 775.588 6.68822 773.992 5.09233C772.396 3.49644 770.546 2.24875 768.442 1.34925C766.339 0.44975 764.083 0 761.674 0C759.266 0 757.01 0.44975 754.906 1.34925C752.803 2.24875 750.953 3.49644 749.357 5.09233C747.761 6.68822 746.514 8.53799 745.614 10.6417C744.715 12.7453 744.265 15.0013 744.265 17.4097C744.265 19.818 744.715 22.074 745.614 24.1777C746.514 26.2814 747.761 28.1311 749.357 29.727C750.953 31.3229 752.803 32.5706 754.906 33.4701ZM768.334 28.8565C766.332 30.0462 764.112 30.641 761.674 30.641C759.237 30.641 757.017 30.0462 755.015 28.8565C753.013 27.6669 751.417 26.071 750.228 24.0689C749.038 22.0668 748.443 19.847 748.443 17.4097C748.443 14.9723 749.038 12.7526 750.228 10.7505C751.417 8.74836 753.013 7.15247 755.015 5.96281C757.017 4.77315 759.237 4.17832 761.674 4.17832C764.112 4.17832 766.332 4.77315 768.334 5.96281C770.336 7.15247 771.932 8.74836 773.121 10.7505C774.311 12.7526 774.906 14.9723 774.906 17.4097C774.906 19.847 774.311 22.0668 773.121 24.0689C771.932 26.071 770.336 27.6669 768.334 28.8565ZM83.9411 119.141V131.168H105.114V3.27239H83.9257V44.6531H83.5274C81.6583 41.8035 79.1917 39.2603 76.1123 37.0388C73.0329 34.8173 69.4632 33.0708 65.4186 31.8145C61.374 30.5582 56.977 29.9301 52.197 29.9301C42.0548 29.9301 32.9851 32.5039 25.0031 37.6363C17.0211 42.784 10.8469 49.3565 6.51122 57.3844C2.17551 65.4124 0 73.5629 0 81.8513C0 88.2093 1.14904 94.4907 3.43179 100.696C5.71455 106.885 9.10038 112.508 13.574 117.548C18.0629 122.589 23.4863 126.572 29.8903 129.483C36.2943 132.409 43.3724 133.864 51.1245 133.864C57.6817 133.864 63.9172 132.516 69.8156 129.835C75.714 127.154 80.2948 123.584 83.5427 119.141H83.9411ZM26.7036 97.8918C23.8847 92.9586 22.4752 87.5965 22.4752 81.836C22.4752 76.1367 23.8847 70.8052 26.7036 65.872C29.5226 60.9235 33.3681 57.0321 38.24 54.1824C43.1119 51.3328 48.3668 49.908 53.8056 49.908C59.2444 49.908 64.3461 51.3328 69.1261 54.1824C73.8908 57.0321 77.6903 60.9388 80.5093 65.872C83.3282 70.8205 84.7377 76.0754 84.7377 81.836C84.7377 87.5965 83.3282 92.9586 80.5093 97.8918C77.6903 102.84 73.9061 106.732 69.1261 109.581C64.3461 112.431 59.3057 113.856 53.8056 113.856C48.3056 113.856 43.1119 112.431 38.24 109.581C33.3681 106.732 29.5226 102.825 26.7036 97.8918ZM201.848 119.141V131.168L201.832 131.183H223.021V32.6265H201.832V44.6531H201.434C199.565 41.8035 197.098 39.2603 194.019 37.0388C190.939 34.8173 187.37 33.0708 183.325 31.8145C179.281 30.5582 174.884 29.9301 170.104 29.9301C159.961 29.9301 150.892 32.5039 142.91 37.6363C134.928 42.784 128.754 49.3565 124.418 57.3844C120.082 65.4124 117.907 73.5629 117.907 81.8513C117.907 88.2093 119.056 94.4907 121.338 100.696C123.621 106.885 127.007 112.508 131.481 117.548C135.97 122.589 141.393 126.572 147.797 129.483C154.201 132.409 161.279 133.864 169.031 133.864C175.588 133.864 181.824 132.516 187.722 129.835C193.621 127.154 198.201 123.584 201.449 119.141H201.848ZM144.61 97.8918C141.791 92.9586 140.382 87.5965 140.382 81.836C140.382 76.1367 141.791 70.8052 144.61 65.872C147.429 60.9235 151.275 57.0321 156.147 54.1824C161.019 51.3328 166.273 49.908 171.712 49.908C177.151 49.908 182.253 51.3328 187.033 54.1824C191.797 57.0321 195.597 60.9388 198.416 65.872C201.235 70.8205 202.644 76.0754 202.644 81.836C202.644 87.5965 201.235 92.9586 198.416 97.8918C195.597 102.84 191.813 106.732 187.033 109.581C182.253 112.431 177.212 113.856 171.712 113.856C166.212 113.856 161.019 112.431 156.147 109.581C151.275 106.732 147.429 102.825 144.61 97.8918ZM251.072 52.4972V131.168H272.261V52.4972H287.382V32.6112H272.261V0.591297L251.072 6.35181V32.6112H239.138V52.4972H251.072ZM379.167 119.141V131.168L379.152 131.183H400.34V32.6265H379.152V44.6531H378.754C376.885 41.8035 374.418 39.2603 371.339 37.0388C368.259 34.8173 364.689 33.0708 360.645 31.8145C356.6 30.5582 352.203 29.9301 347.423 29.9301C337.281 29.9301 328.211 32.5039 320.229 37.6363C312.247 42.784 306.073 49.3565 301.737 57.3844C297.402 65.4124 295.226 73.5629 295.226 81.8513C295.226 88.2093 296.375 94.4907 298.658 100.696C300.941 106.885 304.327 112.508 308.8 117.548C313.289 122.589 318.713 126.572 325.117 129.483C331.521 132.409 338.599 133.864 346.351 133.864C352.908 133.864 359.143 132.516 365.042 129.835C370.94 127.154 375.521 123.584 378.769 119.141H379.167ZM321.93 97.8918C319.111 92.9586 317.701 87.5965 317.701 81.836C317.701 76.1367 319.111 70.8052 321.93 65.872C324.749 60.9235 328.594 57.0321 333.466 54.1824C338.338 51.3328 343.593 49.908 349.032 49.908C354.471 49.908 359.572 51.3328 364.352 54.1824C369.117 57.0321 372.917 60.9388 375.735 65.872C378.554 70.8205 379.964 76.0754 379.964 81.836C379.964 87.5965 378.554 92.9586 375.735 97.8918C372.917 102.84 369.132 106.732 364.352 109.581C359.572 112.431 354.532 113.856 349.032 113.856C343.532 113.856 338.338 112.431 333.466 109.581C328.594 106.732 324.749 102.825 321.93 97.8918ZM428.208 72.8888V165.18L428.239 165.164H449.427V72.8735H470.615V52.9874H449.427V34.9858C449.427 32.6112 449.979 30.2824 451.112 28.0303C452.231 25.7782 453.855 23.9704 455.984 22.6069C458.099 21.2433 460.488 20.5692 463.139 20.5692C466.525 20.5692 469.635 21.1667 472.484 22.3617L481.232 3.27239C476.989 1.47989 471.55 0.591297 464.916 0.591297C456.827 0.591297 450.025 2.23059 444.525 5.50918C439.009 8.78777 434.919 13.1082 432.238 18.4857C429.556 23.8632 428.208 29.7922 428.208 36.2881V53.0028H414.389V72.8888H428.208ZM579.131 109.781L561.236 99.8376V99.8069C553.545 109.949 544.031 115.02 532.694 115.02C527.853 115.02 523.18 113.917 518.676 111.696C514.172 109.474 510.449 106.364 507.538 102.35C504.612 98.3361 502.957 93.9545 502.559 89.1745H584.508V85.2984C584.508 76.1367 582.899 68.0015 579.682 60.8775C576.465 53.7535 572.282 47.9317 567.15 43.4274C562.002 38.9232 556.487 35.5374 550.588 33.2853C544.69 31.0331 538.96 29.8994 533.383 29.8994C522.445 29.8994 512.808 32.3814 504.489 37.3146C496.17 42.2478 489.827 48.6824 485.492 56.6031C481.156 64.5391 478.98 72.996 478.98 81.8206C478.98 90.6452 481.141 99.0562 485.492 107.038C489.827 115.035 496.17 121.501 504.489 126.434C512.808 131.382 522.445 133.849 533.383 133.849C537.75 133.772 542.086 133.19 546.36 132.057C550.634 130.938 554.633 129.36 558.387 127.338C562.14 125.316 565.878 122.711 569.632 119.524C573.37 116.338 576.541 113.105 579.131 109.781ZM559.643 71.6938H502.559C504.275 64.5391 507.66 58.9165 512.701 54.8412C517.741 50.766 523.609 48.7283 530.503 48.7283C537.397 48.7283 543.449 50.7047 548.658 54.6421C553.852 58.5794 557.513 64.2633 559.643 71.6938ZM695.704 109.781L677.81 99.8376V99.8069C670.119 109.949 660.605 115.02 649.268 115.02C644.427 115.02 639.754 113.917 635.25 111.696C630.745 109.474 627.022 106.364 624.112 102.35C621.185 98.3361 619.531 93.9545 619.132 89.1745H701.082V85.2984C701.082 76.1367 699.473 68.0015 696.256 60.8775C693.039 53.7535 688.856 47.9317 683.724 43.4274C678.576 38.9232 673.061 35.5374 667.162 33.2853C661.264 31.0331 655.534 29.8994 649.957 29.8994C639.018 29.8994 629.382 32.3814 621.063 37.3146C612.744 42.2478 606.401 48.6824 602.065 56.6031C597.73 64.5391 595.554 72.996 595.554 81.8206C595.554 90.6452 597.714 99.0562 602.065 107.038C606.401 115.035 612.744 121.501 621.063 126.434C629.382 131.382 639.018 133.849 649.957 133.849C654.324 133.772 658.659 133.19 662.934 132.057C667.208 130.938 671.207 129.36 674.96 127.338C678.714 125.316 682.452 122.711 686.206 119.524C689.944 116.338 693.115 113.105 695.704 109.781ZM676.217 71.6938H619.132C620.848 64.5391 624.234 58.9165 629.275 54.8412C634.315 50.766 640.183 48.7283 647.077 48.7283C653.971 48.7283 660.023 50.7047 665.232 54.6421C670.425 58.5794 674.087 64.2633 676.217 71.6938ZM734.925 3.27239H713.767V95.364C713.767 102.059 714.87 107.59 717.092 111.925C719.313 116.261 722.668 120.061 727.142 123.309C731.616 126.557 737.836 130.065 745.787 133.849L755.133 117.134L743.688 110.577C740.44 108.586 738.173 106.287 736.87 103.714C735.568 101.14 734.925 97.0646 734.925 91.4879V3.27239Z" fill="url(#paint0_linear_1_9)"/>
<defs>
<linearGradient id="paint0_linear_1_9" x1="0" y1="82.5821" x2="779.053" y2="82.5821" gradientUnits="userSpaceOnUse">
<stop stop-color="#91D4AC"/>
<stop offset="0.24" stop-color="#85CCB7"/>
<stop offset="1" stop-color="#62B8DB"/>
</linearGradient>
</defs>
</svg>
