<svg width="306" height="153" viewBox="0 0 306 153" fill="none" xmlns="http://www.w3.org/2000/svg">
<g clip-path="url(#clip0_1_18)">
<path d="M172.242 26.836C169.314 26.836 166.933 24.457 166.933 21.5325V12.0315C166.933 9.10699 169.314 6.72797 172.242 6.72797H261.404C264.331 6.72797 266.713 9.10699 266.713 12.0315C266.713 14.9561 264.331 17.3351 261.404 17.3351H177.551V21.5325C177.551 24.457 175.169 26.836 172.242 26.836ZM193.69 39.8373V34.7913H253.819C256.747 34.7913 259.128 32.4123 259.128 29.4878C259.128 26.5633 256.747 24.1842 253.819 24.1842H188.381C185.454 24.1842 183.072 26.5633 183.072 29.4878V39.8373C183.072 42.7618 185.454 45.1409 188.381 45.1409C191.309 45.1409 193.69 42.7618 193.69 39.8373ZM241.866 84.2205C241.866 81.296 239.485 78.9169 236.557 78.9169H209.921V52.7174H246.235C249.163 52.7174 251.544 50.3383 251.544 47.4138C251.544 44.4893 249.163 42.1103 246.235 42.1103H204.612C201.684 42.1103 199.303 44.4893 199.303 47.4138V84.2205C199.303 87.145 201.684 89.524 204.612 89.524H236.557C239.485 89.524 241.866 87.145 241.866 84.2205ZM209.921 146.939V107.238H230.99C233.918 107.238 236.299 104.859 236.299 101.934C236.299 99.0098 233.918 96.6308 230.99 96.6308H204.612C201.684 96.6308 199.303 99.0098 199.303 101.934V146.939C199.303 149.863 201.684 152.242 204.612 152.242C207.539 152.242 209.921 149.863 209.921 146.939ZM193.69 146.939V118.815C193.69 115.89 191.309 113.511 188.381 113.511C185.454 113.511 183.072 115.89 183.072 118.815V146.939C183.072 149.863 185.454 152.242 188.381 152.242C191.309 152.242 193.69 149.863 193.69 146.939ZM177.369 146.939V136.135C177.369 133.21 174.987 130.831 172.06 130.831C169.132 130.831 166.75 133.21 166.75 136.135V146.939C166.75 149.863 169.132 152.242 172.06 152.242C174.987 152.242 177.369 149.863 177.369 146.939Z" fill="url(#paint0_linear_1_18)"/>
<path d="M32.2488 34.3519C34.8427 34.3519 37.4517 34.458 40.0456 34.3216C43.3827 34.1549 45.6884 32.4881 45.7187 29.0029C45.7491 25.5025 43.4586 23.7448 40.1214 23.6539C34.9185 23.5175 29.7157 23.472 24.5128 23.6539C21.1453 23.7599 18.9458 25.8056 19.0368 29.1847C19.1278 32.2759 21.2515 34.1397 24.4369 34.3064C27.0308 34.4428 29.6398 34.3367 32.2337 34.3367C32.2337 34.3367 32.2337 34.3519 32.2337 34.367L32.2488 34.3519ZM13.7581 29.0786C13.8643 26.139 12.1199 23.8812 8.76755 23.7448C5.41525 23.6084 3.07926 25.1237 2.83656 28.5937C2.59386 32.0486 4.70232 33.7912 7.49337 34.2004C11.5283 34.2761 13.6216 32.2911 13.7429 29.0938L13.7581 29.0786ZM61.2516 68.4159C63.8454 68.4159 66.4545 68.5219 69.0483 68.3856C72.3855 68.2189 74.6911 66.552 74.7214 63.0669C74.7518 59.5665 72.4613 57.8088 69.1242 57.7178C63.9213 57.5815 58.7184 57.536 53.5155 57.7178C50.148 57.8239 47.9485 59.8696 48.0396 63.2487C48.1306 66.3399 50.2542 68.2037 53.4396 68.3704C56.0335 68.5068 58.6425 68.4007 61.2364 68.4007C61.2364 68.4007 61.2364 68.4159 61.2364 68.431L61.2516 68.4159ZM42.7608 63.1426C42.867 60.2029 41.1226 57.9451 37.7703 57.8088C34.418 57.6724 32.082 59.1877 31.8393 62.6577C31.5966 66.1126 33.705 67.8552 36.4961 68.2643C40.531 68.3401 42.6243 66.3551 42.7456 63.1578L42.7608 63.1426ZM97.9449 17.4563C90.6032 17.4563 83.2463 17.4866 75.9046 17.4563C71.1264 17.426 68.1382 15.2894 68.5022 11.9406C68.9725 7.7432 71.8697 6.57641 75.7226 6.66733C91.483 7.031 107.274 5.83392 122.989 7.2583C157.331 10.3647 184.225 37.4583 188.442 72.8254C192.234 104.616 171.483 137.377 140.675 148.53C129.359 152.621 117.679 153.303 105.863 152.955C102.359 152.848 99.9168 151.106 100.144 147.272C100.342 143.742 102.723 142.257 106.06 142.257C115.389 142.257 124.642 142.332 133.774 139.605C173.895 127.649 191.324 78.5229 166.978 44.565C154.358 26.9724 137.08 17.2896 114.919 17.4866C109.261 17.532 103.588 17.4866 97.9297 17.4866L97.9449 17.4563ZM83.4283 23.6842C75.4647 23.6842 67.5163 23.7296 59.5527 23.6842C55.988 23.669 53.3638 25.0328 53.2728 28.7756C53.1666 32.776 55.7908 34.367 59.6133 34.2307C60.842 34.1852 62.0555 34.2458 63.2842 34.2458C80.5766 34.2458 97.869 34.2004 115.161 34.2458C126.25 34.2761 136.216 37.7007 144.741 44.8378C159.515 57.2026 164.779 76.7046 158.438 95.0397C152.355 112.587 135.958 124.664 116.982 125.24C107.046 125.543 97.0954 125.361 87.1447 125.391C83.7469 125.391 81.3502 126.967 81.1833 130.392C81.0165 133.786 83.1856 135.923 86.5986 135.862C99.4314 135.65 112.325 136.983 125.097 135.044C151.415 131.028 171.635 107.117 171.787 80.0534C171.938 53.278 152.097 29.1847 126.053 24.6691C114.054 22.5932 101.919 24.2297 89.8599 23.6842C87.7211 23.6842 85.5671 23.6842 83.4283 23.6842ZM95.715 51.3384C102.298 51.3384 108.882 51.2778 115.465 51.3384C131.65 51.5203 144.104 63.8548 144.195 79.7049C144.286 95.4792 131.817 108.011 115.677 108.299C111.081 108.374 106.5 108.283 101.904 108.314C98.4758 108.344 96.2005 110.208 96.0943 113.511C95.9881 116.875 98.2938 118.981 101.631 119.012C109.109 119.088 116.663 119.709 124.05 118.042C143.451 113.678 156.33 95.8883 154.631 75.9772C153.008 56.8844 136.731 41.3223 116.951 40.6707C102.571 40.201 88.1762 40.5192 73.781 40.5495C69.3972 40.5495 66.6213 42.7012 66.591 45.8833C66.5606 49.2473 69.1242 51.293 73.6445 51.3233C80.9862 51.3839 88.343 51.3233 95.6847 51.3233V51.293L95.715 51.3384ZM86.7655 57.6421C85.2486 57.6421 83.762 57.6421 82.5334 58.8998C80.8648 60.6272 80.3036 62.582 81.1227 64.764C82.0328 67.1733 83.9744 68.128 86.5531 68.1128C96.0336 68.0825 105.514 68.0522 114.995 68.1734C122.715 68.2643 127.691 73.7043 127.054 81.0989C126.538 87.0389 121.593 91.3424 114.888 91.4636C108.927 91.5697 102.966 91.4939 97.0044 91.4939C93.3942 91.4939 91.0127 93.1001 91.0279 96.8581C91.0279 100.54 93.3791 102.086 96.9589 102.071C103.527 102.025 110.11 102.207 116.678 101.98C128.389 101.556 137.975 91.4182 137.915 79.7806C137.854 67.8855 128.1 57.9148 116.132 57.6421C111.4 57.536 106.652 57.6269 101.904 57.6421C96.8527 57.6421 91.8167 57.6421 86.7655 57.6421ZM13.4699 6.65218C10.876 6.65218 8.26698 6.54611 5.67312 6.68249C2.33599 6.83402 0.0303302 8.516 -7.39182e-06 12.0012C-0.030345 15.5015 2.26014 17.2593 5.59728 17.3502C10.8002 17.4866 16.0031 17.532 21.206 17.3502C24.5734 17.2441 26.7729 15.1985 26.6819 11.8194C26.5909 8.72814 24.4673 6.86432 21.2818 6.69764C18.6879 6.56126 16.0789 6.66733 13.485 6.66733C13.485 6.66733 13.485 6.65218 13.485 6.63703L13.4699 6.65218ZM52.1048 51.3233C53.3335 51.3233 54.5621 51.3536 55.7756 51.3233C59.2645 51.2323 61.8735 49.7928 61.9797 46.0349C62.0858 42.2163 59.4161 40.7313 55.988 40.5343C53.5458 40.3979 51.0885 40.4434 48.6463 40.5798C45.2637 40.7616 43.1097 42.5497 43.1704 46.0349C43.231 49.2473 45.2333 50.9899 48.4339 51.2627C49.6474 51.3687 50.8761 51.2778 52.1048 51.2778V51.3081V51.3233ZM86.1284 108.39C82.9278 108.39 80.9255 110.344 80.7738 113.435C80.6069 116.845 82.8519 118.921 86.098 118.981C89.3138 119.027 91.4526 117.133 91.8015 113.451C91.3616 110.344 89.4958 108.374 86.1284 108.39ZM38.5287 17.3957C41.608 17.3502 43.7468 15.3803 43.8226 12.2588C43.8985 8.89483 41.7597 6.80371 38.4377 6.75825C35.1309 6.72794 33.1741 8.69784 32.9011 12.077C33.2348 15.5318 35.2523 17.4411 38.5287 17.3957ZM56.7616 17.3351C59.8409 17.2744 61.9493 15.4561 61.9797 12.2133C62.01 8.80391 59.9926 6.78856 56.6403 6.75825C53.2576 6.71279 51.4525 8.80391 51.0885 12.1224C51.3918 15.5773 53.4851 17.3957 56.7616 17.3351ZM53.2576 91.2818C50.6637 91.2818 48.0547 91.1757 45.4609 91.3121C42.1237 91.4788 39.8181 93.1456 39.7877 96.6308C39.7574 100.131 42.0479 101.889 45.385 101.98C50.5879 102.116 55.7908 102.162 60.9937 101.98C64.3612 101.874 66.5606 99.8281 66.4696 96.449C66.3786 93.3577 64.255 91.4939 61.0695 91.3272C58.4757 91.1909 55.8666 91.2969 53.2728 91.2969C53.2728 91.2969 53.2728 91.2818 53.2728 91.2666L53.2576 91.2818ZM73.2652 96.555C73.1591 99.4947 74.9035 101.753 78.2558 101.889C81.6081 102.025 83.9441 100.51 84.1868 97.0399C84.4295 93.585 82.321 91.8424 79.53 91.4333C75.4951 91.3575 73.4018 93.3426 73.2804 96.5399L73.2652 96.555ZM75.5861 130.861C75.5102 127.604 73.2197 125.785 70.2011 125.876C67.4101 125.967 65.332 127.816 65.3623 130.907C65.3926 134.119 67.2584 135.862 70.459 136.135C73.6445 135.771 75.6619 134.074 75.5709 130.861H75.5861ZM27.228 91.3727C24.0274 91.3727 22.0251 93.3274 21.8734 96.4186C21.7065 99.8281 23.9515 101.904 27.1976 101.965C30.4134 102.01 32.5522 100.116 32.9011 96.4338C32.4612 93.3274 30.5954 91.3575 27.228 91.3727ZM16.6857 96.5096C16.6098 93.2517 14.3193 91.4333 11.3007 91.5242C8.50968 91.6151 6.43156 93.4638 6.4619 96.555C6.49224 99.7675 8.358 101.51 11.5586 101.783C14.7441 101.419 16.7615 99.722 16.6705 96.5096H16.6857ZM47.63 152.955C50.2239 152.955 52.8329 153.061 55.4268 152.924C58.7639 152.758 61.0695 151.091 61.0999 147.606C61.1302 144.105 58.8397 142.347 55.5026 142.257C50.2997 142.12 45.0968 142.075 39.8939 142.257C36.5264 142.363 34.327 144.408 34.418 147.787C34.509 150.879 36.6326 152.742 39.8181 152.909C42.4119 153.045 45.021 152.939 47.6148 152.939C47.6148 152.939 47.6148 152.955 47.6148 152.97L47.63 152.955ZM27.6224 147.681C27.7285 144.742 25.9841 142.484 22.6318 142.347C19.2795 142.211 16.9435 143.726 16.7008 147.196C16.4581 150.651 18.5666 152.394 21.3576 152.803C25.3925 152.879 27.4858 150.894 27.6072 147.696L27.6224 147.681ZM73.6596 152.864C76.8603 152.864 78.8625 150.909 79.0142 147.818C79.1811 144.408 76.9361 142.332 73.69 142.272C70.4742 142.226 68.3354 144.12 67.9865 147.803C68.4264 150.909 70.2922 152.879 73.6596 152.864ZM84.2019 147.727C84.2778 150.985 86.5683 152.803 89.5869 152.712C92.3779 152.621 94.456 150.773 94.4257 147.681C94.3954 144.469 92.5296 142.726 89.329 142.454C86.1435 142.817 84.1261 144.514 84.2171 147.727H84.2019Z" fill="url(#paint1_linear_1_18)"/>
<path d="M283.8 17.4V6.33H289.41C289.86 6.33 290.35 6.46 290.88 6.72C291.41 6.97 291.86 7.36 292.23 7.89C292.61 8.41 292.8 9.07 292.8 9.87C292.8 10.68 292.605 11.37 292.215 11.94C291.825 12.5 291.35 12.925 290.79 13.215C290.24 13.505 289.72 13.65 289.23 13.65H285.18V11.85H288.48C288.81 11.85 289.165 11.685 289.545 11.355C289.935 11.025 290.13 10.53 290.13 9.87C290.13 9.19 289.935 8.73 289.545 8.49C289.165 8.25 288.83 8.13 288.54 8.13H286.23V17.4H283.8ZM290.49 12.18L293.25 17.4H290.58L287.88 12.18H290.49ZM288 24C286.34 24 284.785 23.69 283.335 23.07C281.885 22.45 280.61 21.59 279.51 20.49C278.41 19.39 277.55 18.115 276.93 16.665C276.31 15.215 276 13.66 276 12C276 10.34 276.31 8.785 276.93 7.335C277.55 5.885 278.41 4.61 279.51 3.51C280.61 2.41 281.885 1.55 283.335 0.930001C284.785 0.31 286.34 0 288 0C289.66 0 291.215 0.31 292.665 0.930001C294.115 1.55 295.39 2.41 296.49 3.51C297.59 4.61 298.45 5.885 299.07 7.335C299.69 8.785 300 10.34 300 12C300 13.66 299.69 15.215 299.07 16.665C298.45 18.115 297.59 19.39 296.49 20.49C295.39 21.59 294.115 22.45 292.665 23.07C291.215 23.69 289.66 24 288 24ZM288 21.12C289.68 21.12 291.21 20.71 292.59 19.89C293.97 19.07 295.07 17.97 295.89 16.59C296.71 15.21 297.12 13.68 297.12 12C297.12 10.32 296.71 8.79 295.89 7.41C295.07 6.03 293.97 4.93 292.59 4.11C291.21 3.29 289.68 2.88 288 2.88C286.32 2.88 284.79 3.29 283.41 4.11C282.03 4.93 280.93 6.03 280.11 7.41C279.29 8.79 278.88 10.32 278.88 12C278.88 13.68 279.29 15.21 280.11 16.59C280.93 17.97 282.03 19.07 283.41 19.89C284.79 20.71 286.32 21.12 288 21.12Z" fill="url(#paint2_linear_1_18)"/>
</g>
<defs>
<linearGradient id="paint0_linear_1_18" x1="166.735" y1="79.4776" x2="266.698" y2="79.4776" gradientUnits="userSpaceOnUse">
<stop stop-color="#91D4AC"/>
<stop offset="0.23" stop-color="#8BD0B1"/>
<stop offset="0.52" stop-color="#7CC7C0"/>
<stop offset="0.84" stop-color="#63B8D9"/>
<stop offset="0.85" stop-color="#62B8DB"/>
</linearGradient>
<linearGradient id="paint1_linear_1_18" x1="-7.39182e-06" y1="79.7503" x2="188.897" y2="79.7503" gradientUnits="userSpaceOnUse">
<stop stop-color="#91D4AC"/>
<stop offset="0.23" stop-color="#8BD0B1"/>
<stop offset="0.52" stop-color="#7CC7C0"/>
<stop offset="0.84" stop-color="#63B8D9"/>
<stop offset="0.85" stop-color="#62B8DB"/>
</linearGradient>
<linearGradient id="paint2_linear_1_18" x1="276" y1="11.9989" x2="299.999" y2="11.9989" gradientUnits="userSpaceOnUse">
<stop stop-color="#91D4AC"/>
<stop offset="0.24" stop-color="#85CCB7"/>
<stop offset="1" stop-color="#62B8DB"/>
</linearGradient>
<clipPath id="clip0_1_18">
<rect width="306" height="153" fill="white"/>
</clipPath>
</defs>
</svg>
